<?xml version="1.0" encoding="UTF-8"?>
<svg version="1.1" xmlns="http://www.w3.org/2000/svg" width="238" height="244">
<path d="M0 0 C78.54 0 157.08 0 238 0 C238 80.52 238 161.04 238 244 C159.46 244 80.92 244 0 244 C0 163.48 0 82.96 0 0 Z " fill="#1E4AA6" transform="translate(0,0)"/>
<path d="M0 0 C78.54 0 157.08 0 238 0 C238 80.52 238 161.04 238 244 C159.46 244 80.92 244 0 244 C0 163.48 0 82.96 0 0 Z M9 15 C9 85.62 9 156.24 9 229 C11.05031679 225.92452481 11.92559436 223.44440476 13.01538086 219.92724609 C13.40596176 218.67519379 13.79654266 217.42314148 14.19895935 216.13314819 C14.6209936 214.76326705 15.04295317 213.3933629 15.46484375 212.0234375 C15.90275425 210.61425042 16.34112083 209.205205 16.77992249 207.79629517 C17.9354032 204.08237429 19.08521928 200.36672425 20.23370361 196.65063477 C21.62148961 192.16340788 23.01515388 187.67800437 24.40873814 183.19257545 C25.49514429 179.69582798 26.58044698 176.19875383 27.66209412 172.70053101 C29.44514825 166.94063102 31.25061511 161.19302163 33.17832947 155.47979736 C35.227627 149.29502815 37.15524283 143.06962575 39.11328125 136.85546875 C39.61026088 135.2795587 40.10726557 133.70365655 40.60429382 132.12776184 C41.64451553 128.82891025 42.68413807 125.52987053 43.72338867 122.23071289 C44.77645066 118.88795677 45.83049065 115.54551177 46.88549805 112.20336914 C56.05523239 84.27623819 56.05523239 84.27623819 64 56 C71.29615009 56.04168242 78.59153821 56.11402239 85.88720703 56.20751953 C88.36825681 56.23571696 90.84939622 56.25693755 93.33056641 56.27099609 C96.90053147 56.29244162 100.46942028 56.33910342 104.0390625 56.390625 C105.14553131 56.39185364 106.25200012 56.39308228 107.39199829 56.39434814 C113.54922986 56.51102039 117.32239212 56.85666891 122 61 C124.34815877 63.98856571 124.41516536 67.21895138 124.32421875 70.96875 C123.79002404 74.31551204 122.13123774 76.44251471 120 79 C116.36743982 81.42170679 114.47421305 81.3044503 110.14453125 81.4140625 C109.48289474 81.43342865 108.82125824 81.4527948 108.13957214 81.4727478 C106.03067836 81.53242687 103.92172963 81.57888087 101.8125 81.625 C100.38083585 81.66319066 98.94919441 81.70224303 97.51757812 81.7421875 C94.01192688 81.83811773 90.50610555 81.92219197 87 82 C86.74831055 83.0422876 86.49662109 84.0845752 86.23730469 85.15844727 C85.28481798 89.10077313 84.32998368 93.04252754 83.37451172 96.98413086 C82.96471165 98.67603801 82.55551178 100.36809067 82.14697266 102.06030273 C80.96935136 106.9371595 79.77764239 111.81021231 78.56985474 116.6796875 C78.01684803 118.93139884 77.4821364 121.1868811 76.94897461 123.44335938 C76.6165277 124.79707296 76.28331992 126.1506 75.94921875 127.50390625 C75.66651123 128.68154541 75.38380371 129.85918457 75.0925293 131.07250977 C73.60680557 135.05358534 71.52764147 136.50848909 67.96875 138.61328125 C63.81229712 141.54094151 61.6100688 146.59081112 60.38671875 151.421875 C59.22938068 159.13746213 59.58734253 166.23864477 62.34375 173.55078125 C64.10975333 180.14175798 62.42049386 186.40590455 60.84765625 192.84375 C60.62806747 193.77167358 60.4084787 194.69959717 60.18223572 195.65563965 C59.48300632 198.60556744 58.773372 201.55285824 58.0625 204.5 C57.35684549 207.44749984 56.65347257 210.39551164 55.95347595 213.34436035 C55.51863068 215.17392921 55.08030647 217.00267587 54.63795471 218.83044434 C54.33775673 220.087099 54.33775673 220.087099 54.03149414 221.36914062 C53.76835167 222.45998962 53.76835167 222.45998962 53.49989319 223.57287598 C52.85801841 226.68936114 52.44998851 229.85008042 52 233 C109.75 233 167.5 233 227 233 C227.04125 210.374375 227.0825 187.74875 227.125 164.4375 C227.14320801 157.31728271 227.16141602 150.19706543 227.18017578 142.86108398 C227.18686838 136.42804814 227.18686838 136.42804814 227.19088745 129.99501038 C227.1927361 127.1498039 227.20017191 124.30467353 227.21115112 121.45948792 C227.22503704 117.81179935 227.22895182 114.16421885 227.22614455 110.51650631 C227.22700296 108.57103268 227.23764177 106.62557054 227.2488575 104.68012905 C227.1965155 82.11354809 221.56470134 63.84627749 205.6875 47.25 C192.82063006 35.11395056 178.12369666 26.79258728 161.4375 21.125 C160.63642822 20.85091309 159.83535645 20.57682617 159.01000977 20.29443359 C142.6195254 15.03498328 126.9464366 14.57841854 109.85498047 14.68327332 C106.04256112 14.70603102 102.23044924 14.71360909 98.41796875 14.71618652 C89.2786028 14.73181106 80.13929692 14.77369462 71 14.8125 C50.54 14.874375 30.08 14.93625 9 15 Z " fill="#FBFCFD" transform="translate(0,0)"/>
<path d="M0 0 C17.27967154 -1.07481211 30.63233169 -0.86412274 44.203125 10.62890625 C56.88030106 22.13464182 63.64175415 38.0888827 65 55 C65.9715446 75.91921557 61.84479958 95.83075123 48.12890625 112.23828125 C39.8187081 121.1169839 29.72043443 126.26367481 17.56013489 127.29045105 C13.70128536 127.4105938 9.84841613 127.44459394 5.98828125 127.43359375 C4.56584935 127.43816766 3.14341964 127.44347677 1.72099304 127.44947815 C-1.23988915 127.45834792 -4.20050067 127.45605411 -7.16137695 127.44604492 C-10.93728197 127.43451747 -14.71225694 127.45485444 -18.48803997 127.48396206 C-21.417911 127.50238078 -24.34756091 127.50202121 -27.27747536 127.49632454 C-28.66921107 127.49617226 -30.06096266 127.50213876 -31.45264244 127.51461601 C-39.37942756 127.57573533 -45.28264615 127.41607076 -52 123 C-58.02801172 116.97198828 -60.15696965 111.77953093 -60.375 103.4375 C-60.25168858 98.54427849 -59.8711572 95.10165315 -57 91 C-56.4225 90.13375 -55.845 89.2675 -55.25 88.375 C-50.47801873 83.33790866 -46.61227441 81.76821304 -39.7644043 81.53344727 C-37.28432937 81.52597618 -34.80414346 81.53810554 -32.32421875 81.56640625 C-30.99053823 81.56411538 -29.65685992 81.55934575 -28.32319641 81.55223083 C-23.40063827 81.53069258 -18.47842451 81.54779578 -13.5559082 81.57373047 C-9.39004313 81.59527805 -5.22515563 81.59687692 -1.05930519 81.57081413 C0.87590797 81.56651699 2.81111744 81.5910523 4.74617004 81.61634827 C13.37470926 81.5678556 20.32960683 80.19245556 26.90351868 74.29127502 C32.72985978 68.1998447 34.18586796 61.84203294 34.5 53.625 C34.31995739 45.75792084 32.67843732 39.93297204 27.25 34.12890625 C23.12948638 30.42577225 19.32543783 27.82823305 13.671875 27.5859375 C12.87265625 27.54726562 12.0734375 27.50859375 11.25 27.46875 C10.425 27.4378125 9.6 27.406875 8.75 27.375 C7.90953125 27.33632812 7.0690625 27.29765625 6.203125 27.2578125 C4.13576618 27.16384164 2.06791373 27.08084436 0 27 C0.309375 26.236875 0.61875 25.47375 0.9375 24.6875 C2.62204239 20.42659866 3.18760725 17.14316774 3.25 12.5625 C3.28867188 10.86287109 3.28867188 10.86287109 3.328125 9.12890625 C2.96998349 5.71377118 2.19736985 4.53854043 0 2 C0 1.34 0 0.68 0 0 Z " fill="#FBFCFD" transform="translate(127,56)"/>
</svg>
